<?xml version="1.0" encoding="utf-8"?>
<!-- Generator: Adobe Illustrator 16.0.0, SVG Export Plug-In . SVG Version: 6.00 Build 0)  -->
<!DOCTYPE svg PUBLIC "-//W3C//DTD SVG 1.1//EN" "http://www.w3.org/Graphics/SVG/1.1/DTD/svg11.dtd">
<svg version="1.1" id="Layer_1" xmlns="http://www.w3.org/2000/svg" xmlns:xlink="http://www.w3.org/1999/xlink" x="0px" y="0px"
	 width="24px" height="24px" viewBox="0 0 24 24" enable-background="new 0 0 24 24" xml:space="preserve">
<path fill="none" d="M0,0h24v24H0V0z"/>
<path d="M20,8.689V4h-4.689L12,0.689L8.69,4H4v4.689L0.69,12L4,15.311V20h4.69L12,23.311L15.311,20H20v-4.689L23.311,12L20,8.689z
	 M18,14.48V18h-3.52L12,20.48L9.52,18H6v-3.52L3.52,12L6,9.52V6h3.52L12,3.52L14.48,6H18v3.52L20.48,12L18,14.48z M12.29,7
	c-0.74,0-1.45,0.17-2.08,0.46c1.72,0.79,2.92,2.53,2.92,4.54s-1.2,3.75-2.92,4.54c0.63,0.29,1.34,0.46,2.08,0.46c2.76,0,5-2.24,5-5
	S15.05,7,12.29,7z"/>
</svg>
